# xmcd
#
# Track frame offsets:
#	150
#	11327
#	18017
#	27185
#	44000
#	56807
#	69172
#	77780
#	92412
#	102155
#	112475
#	122570
#	130400
#	141155
#	146585
#	159247
#	173565
#
# Disc length: 2497 seconds
#
# Revision: 1
# Processed by: cddbd v1.5.2PL0 Copyright (c) Steve Scherf et al.
# Submitted via: audiograbber 1.83.01
#
DISCID=dc09bf11
DTITLE=Jim Reeves - Exclusieve Collection - Have I Told You Lately That I Love 
DTITLE=You
DYEAR=1900
DGENRE=Country
TTITLE0=Have I Told You Lately That I Love You
TTITLE1=Something To Rock About
TTITLE2=Step Aside Shallow Water
TTITLE3=Please Forgive
TTITLE4=Balled Of 96
TTITLE5=The Writing On The Wall
TTITLE6=The Storm
TTITLE7=Lonesome Waltz
TTITLE8=Everywhere You Go
TTITLE9=The Talking Wall
TTITLE10=Eache Time You Leave
TTITLE11=Yonder Comes A Sucker
TTITLE12=Where Does A Broken Heart Go
TTITLE13=Mexican Joe
TTITLE14=I Get The Blues When It Rains
TTITLE15=I'd Rather Not Know
TTITLE16=Beyound The Clouds
EXTD=
EXTT0=
EXTT1=
EXTT2=
EXTT3=
EXTT4=
EXTT5=
EXTT6=
EXTT7=
EXTT8=
EXTT9=
EXTT10=
EXTT11=
EXTT12=
EXTT13=
EXTT14=
EXTT15=
EXTT16=
PLAYORDER=
